<svg width="32" height="32" viewBox="0 0 32 32" fill="none" xmlns="http://www.w3.org/2000/svg">
<path fill-rule="evenodd" clip-rule="evenodd" d="M4.78105 4.78105C5.28115 4.28095 5.95942 4 6.66667 4H12C12.7072 4 13.3855 4.28095 13.8856 4.78105C14.3857 5.28115 14.6667 5.95942 14.6667 6.66667V12C14.6667 12.7072 14.3857 13.3855 13.8856 13.8856C13.3855 14.3857 12.7072 14.6667 12 14.6667H6.66667C5.95942 14.6667 5.28115 14.3857 4.78105 13.8856C4.28095 13.3855 4 12.7072 4 12V6.66667C4 5.95942 4.28095 5.28115 4.78105 4.78105ZM12 6.66667L6.66667 6.66667L6.66667 12H12V6.66667ZM18.1144 4.78105C18.6145 4.28095 19.2928 4 20 4H25.3333C26.0406 4 26.7189 4.28095 27.219 4.78105C27.7191 5.28115 28 5.95942 28 6.66667V12C28 12.7072 27.7191 13.3855 27.219 13.8856C26.7189 14.3857 26.0406 14.6667 25.3333 14.6667H20C19.2928 14.6667 18.6145 14.3857 18.1144 13.8856C17.6143 13.3855 17.3333 12.7072 17.3333 12V6.66667C17.3333 5.95942 17.6143 5.28115 18.1144 4.78105ZM25.3333 6.66667H20V12H25.3333V6.66667ZM9.33333 8C10.0697 8 10.6667 8.59695 10.6667 9.33333V9.34667C10.6667 10.083 10.0697 10.68 9.33333 10.68C8.59695 10.68 8 10.083 8 9.34667V9.33333C8 8.59695 8.59695 8 9.33333 8ZM22.6667 8C23.403 8 24 8.59695 24 9.33333V9.34667C24 10.083 23.403 10.68 22.6667 10.68C21.9303 10.68 21.3333 10.083 21.3333 9.34667V9.33333C21.3333 8.59695 21.9303 8 22.6667 8ZM4.78105 18.1144C5.28115 17.6143 5.95942 17.3333 6.66667 17.3333H12C12.7072 17.3333 13.3855 17.6143 13.8856 18.1144C14.3857 18.6145 14.6667 19.2928 14.6667 20V25.3333C14.6667 26.0406 14.3857 26.7189 13.8856 27.219C13.3855 27.7191 12.7072 28 12 28H6.66667C5.95942 28 5.28115 27.7191 4.78105 27.219C4.28095 26.7189 4 26.0406 4 25.3333V20C4 19.2928 4.28095 18.6145 4.78105 18.1144ZM17.3333 18.6667C17.3333 17.9303 17.9303 17.3333 18.6667 17.3333H22.6667C23.403 17.3333 24 17.9303 24 18.6667C24 19.403 23.403 20 22.6667 20H20V22.6667C20 23.403 19.403 24 18.6667 24C17.9303 24 17.3333 23.403 17.3333 22.6667V18.6667ZM26.6667 17.3333C27.403 17.3333 28 17.9303 28 18.6667V18.68C28 19.4164 27.403 20.0133 26.6667 20.0133C25.9303 20.0133 25.3333 19.4164 25.3333 18.68V18.6667C25.3333 17.9303 25.9303 17.3333 26.6667 17.3333ZM12 20H6.66667L6.66667 25.3333H12V20ZM9.33333 21.3333C10.0697 21.3333 10.6667 21.9303 10.6667 22.6667V22.68C10.6667 23.4164 10.0697 24.0133 9.33333 24.0133C8.59695 24.0133 8 23.4164 8 22.68V22.6667C8 21.9303 8.59695 21.3333 9.33333 21.3333ZM21.3333 22.6667C21.3333 21.9303 21.9303 21.3333 22.6667 21.3333H26.6667C27.403 21.3333 28 21.9303 28 22.6667V26.6667C28 27.403 27.403 28 26.6667 28C25.9303 28 25.3333 27.403 25.3333 26.6667V24H22.6667C21.9303 24 21.3333 23.403 21.3333 22.6667ZM17.3333 26.6667C17.3333 25.9303 17.9303 25.3333 18.6667 25.3333H22.6667C23.403 25.3333 24 25.9303 24 26.6667C24 27.403 23.403 28 22.6667 28H18.6667C17.9303 28 17.3333 27.403 17.3333 26.6667Z" fill="#F94144"/>
</svg>
